Coordinates
version=1
nRows=6
nColumns=63
inDegrees=yes

Units are S.I. units (second, meters, Newtons, ...)
If the header above contains a line with 'inDegrees', this indicates whether rotational values are in degrees (yes) or radians (no).

endheader
time	pelvis_tilt	pelvis_list	pelvis_rotation	pelvis_tx	pelvis_ty	pelvis_tz	hip_flexion_r	hip_adduction_r	hip_rotation_r	knee_angle_r	knee_angle_r_beta	ankle_angle_r	subtalar_angle_r	mtp_angle_r	hip_flexion_l	hip_adduction_l	hip_rotation_l	knee_angle_l	knee_angle_l_beta	ankle_angle_l	subtalar_angle_l	mtp_angle_l	L5_S1_Flex_Ext	L5_S1_Lat_Bending	L5_S1_axial_rotation	L4_L5_Flex_Ext	L4_L5_Lat_Bending	L4_L5_axial_rotation	L3_L4_Flex_Ext	L3_L4_Lat_Bending	L3_L4_axial_rotation	L2_L3_Flex_Ext	L2_L3_Lat_Bending	L2_L3_axial_rotation	L1_L2_Flex_Ext	L1_L2_Lat_Bending	L1_L2_axial_rotation	L1_T12_Flex_Ext	L1_T12_Lat_Bending	L1_T12_axial_rotation	Abs_r3	Abs_r2	Abs_r1	Abs_t1	Abs_t2	neck_flexion	neck_bending	neck_rotation	arm_flex_r	arm_add_r	arm_rot_r	elbow_flex_r	pro_sup_r	wrist_flex_r	wrist_dev_r	arm_flex_l	arm_add_l	arm_rot_l	elbow_flex_l	pro_sup_l	wrist_flex_l	wrist_dev_l
      3.94915254	     11.32210139	     10.01345511	     81.90197235	     -0.13063397	      0.90598418	      0.64691073	    -10.64608582	      3.69293377	     -5.33499998	     16.99979210	      0.29670234	     18.95044616	     10.04724976	      0.00000000	    -14.46641319	     -6.57031565	    -22.36548270	     10.87658400	      0.18983220	     28.76027365	     11.89337896	      0.00000000	     -1.91734472	      1.26838284	      4.82667481	     -3.56070089	      1.68694917	      5.12834198	     -3.15000565	      3.08394603	      5.12834198	     -2.19133329	      3.08394603	      4.22334046	     -1.78044631	      2.58648628	      3.92167328	     -1.09557078	      1.96472502	      3.62000610	    -13.69540163	     14.34820033	     26.84451727	      0.00000000	      0.00000000	    -11.65528195	      8.08291348	    -21.17623438	     68.38833859	    -27.74212004	    150.18002751	      0.05945877	      0.76899832	    -69.87272845	    -24.49684288	     53.94893990	     30.31927916	    178.65664482	      0.04818914	      0.53079454	    -69.93185885	    -24.65935184
      3.96610169	     10.91606885	      9.66952238	     82.76067299	     -0.13150824	      0.90595018	      0.64626206	    -10.13664322	      3.52274716	     -5.90823060	     17.22367246	      0.30060979	     18.98762279	      9.41423941	      0.00000000	    -13.80359019	     -6.45566214	    -21.64967717	     11.09332479	      0.19361504	     28.71022659	     12.10870069	      0.00000000	     -1.86888852	      1.23429976	      4.58955340	     -3.47071287	      1.64161868	      4.87640049	     -3.07039695	      3.00107644	      4.87640049	     -2.13595269	      3.00107644	      4.01585922	     -1.73544988	      2.51698407	      3.72901214	     -1.06788290	      1.91193033	      3.44216505	    -13.34928382	     13.96264574	     25.52571914	      0.00000000	      0.00000000	    -12.10574949	      8.07270733	    -20.17529246	     67.30777940	    -26.50850212	    149.60535214	      0.05938813	      0.73242978	    -69.87859840	    -24.46598555	     52.69458533	     29.34150314	    178.42287070	      0.04793370	      0.54445141	    -69.93157394	    -24.66451589
      3.98305085	     10.58901045	      9.34946859	     83.63098241	     -0.13233071	      0.90593077	      0.64536284	     -9.71484521	      3.42380328	     -6.53052011	     17.38225039	      0.30337750	     18.97063130	      8.83862706	      0.00000000	    -13.20001637	     -6.41621682	    -20.91857575	     11.31284868	      0.19744646	     28.76830995	     12.35007210	      0.00000000	     -1.82146111	      1.20246374	      4.37682199	     -3.38263544	      1.59927678	      4.65037336	     -2.99247846	      2.92367035	      4.65037336	     -2.08174791	      2.92367035	      3.82971924	     -1.69140879	      2.45206407	      3.55616786	     -1.04078288	      1.86261634	      3.28261649	    -13.01051459	     13.60251036	     24.34257085	      0.00000000	      0.00000000	    -12.54019737	      8.23915246	    -19.48662764	     66.03338363	    -25.47780931	    149.04002866	      0.05971132	      0.71944356	    -69.88271145	    -24.43256596	     51.53889891	     28.54043252	    178.24874772	      0.04781969	      0.56528010	    -69.93107031	    -24.66576394
      4.00000000	     10.33042588	      9.10962848	     84.35820849	     -0.13300504	      0.90590513	      0.64433278	     -9.40847171	      3.33914694	     -7.03550865	     17.51165758	      0.30563608	     18.98815729	      8.36939511	      0.00000000	    -12.75781718	     -6.38160281	    -20.34468508	     11.48233528	      0.20040456	     28.92020452	     12.56610808	      0.00000000	     -1.78453780	      1.17502047	      4.21247819	     -3.31406515	      1.56277722	      4.47575808	     -2.93181716	      2.85694476	      4.47575808	     -2.03954825	      2.85694476	      3.68591842	     -1.65712180	      2.39610173	      3.42263853	     -1.01968490	      1.82010670	      3.15935864	    -12.74677507	     13.29206651	     23.42853996	      0.00000000	      0.00000000	    -12.92792745	      8.47341781	    -19.10909031	     64.72800275	    -24.66974425	    148.67734136	      0.06033995	      0.71589663	    -69.88482510	    -24.39813916	     50.55434199	     27.85757522	    178.03379251	      0.04761310	      0.58006491	    -69.93047649	    -24.66493696
      4.01694915	     10.13156923	      8.89296072	     85.63837737	     -0.13430528	      0.90567696	      0.64353666	     -9.14503936	      3.43651908	     -7.90817682	     17.58737711	      0.30695764	     18.97256202	      7.63138779	      0.00000000	    -12.17965994	     -6.53814719	    -19.25282802	     11.75689037	      0.20519645	     29.16240542	     12.86726111	      0.00000000	     -1.74790500	      1.15907233	      3.94289697	     -3.24603438	      1.54156620	      4.18932803	     -2.87163313	      2.81816846	      4.18932803	     -1.99768063	      2.81816846	      3.45003485	     -1.62310458	      2.36358029	      3.20360379	     -0.99875292	      1.79540304	      2.95717273	    -12.48511063	     13.11165800	     21.92921007	      0.00000000	      0.00000000	    -13.08843259	      8.87190405	    -18.54776273	     63.57065533	    -23.84658872	    147.99892430	      0.06102370	      0.74383512	    -69.88531591	    -24.38389047	     49.77475853	     27.20840776	    177.47334665	      0.04796184	      0.59728037	    -69.92959302	    -24.66051318
      4.03389831	      9.99550354	      8.71381892	     86.47541944	     -0.13536593	      0.90540216	      0.64262441	     -8.91443089	      3.47613934	     -8.39609338	     17.66821874	      0.30836859	     19.03235989	      7.17923396	      0.00000000	    -11.79223330	     -6.60389516	    -18.46276539	     11.92083623	      0.20805784	     29.36179543	     12.94818669	      0.00000000	     -1.71246722	      1.14403012	      3.76790177	     -3.18022288	      1.52156005	      4.00339563	     -2.81341240	      2.78159482	      4.00339563	     -1.95717879	      2.78159482	      3.29691405	     -1.59019706	      2.33290621	      3.06142019	     -0.97850377	      1.77210265	      2.82592633	    -12.23198212	     12.94149747	     20.95593926	      0.00000000	      0.00000000	    -13.48602286	      9.16025662	    -18.20833471	     62.53184008	    -23.31181194	    148.02614009	      0.06126074	      0.77485320	    -69.88532548	    -24.37581009	     49.07581192	     26.71961201	    176.90462525	      0.04815685	      0.60772794	    -69.92871930	    -24.65224614
